<svg xmlns="http://www.w3.org/2000/svg" version="1.1" xmlns:xlink="http://www.w3.org/1999/xlink" xmlns:svgjs="http://svgjs.dev/svgjs" width="1000" height="999" viewBox="0 0 1000 999"><g transform="matrix(1,0,0,1,-0.215743440233382,-0.21552769679306039)"><svg viewBox="0 0 343 343" data-background-color="#ffffff" preserveAspectRatio="xMidYMid meet" height="999" width="1000" xmlns="http://www.w3.org/2000/svg" xmlns:xlink="http://www.w3.org/1999/xlink"><defs></defs><g id="tight-bounds" transform="matrix(1,0,0,1,0.0740000000000407,0.07400000000001228)"><svg viewBox="0 0 342.85155851775386 342.85155851775386" height="342.85155851775386" width="342.85155851775386"><g><svg></svg></g><g><svg viewBox="0 0 342.85155851775386 342.85155851775386" height="342.85155851775386" width="342.85155851775386"><g><path d="M0 171.426c0-94.676 76.75-171.426 171.426-171.426 94.676 0 171.426 76.75 171.426 171.426 0 94.676-76.75 171.426-171.426 171.426-94.676 0-171.426-76.75-171.426-171.426zM171.426 331.63c88.478 0 160.204-71.726 160.204-160.204 0-88.478-71.726-160.204-160.204-160.204-88.478 0-160.204 71.726-160.204 160.204 0 88.478 71.726 160.204 160.204 160.204z" data-fill-palette-color="tertiary" fill="#110e38" stroke="transparent"></path><ellipse rx="164.56874808852186" ry="164.56874808852186" cx="171.42577925887693" cy="171.42577925887693" fill="#110e38" stroke="transparent" stroke-width="0" fill-opacity="1" data-fill-palette-color="tertiary"></ellipse></g><g transform="matrix(1,0,0,1,64.84655864529837,109.20699935974882)"><svg viewBox="0 0 213.1584412271571 124.43755979825622" height="124.43755979825622" width="213.1584412271571"><g><svg viewBox="0 0 213.1584412271571 124.43755979825622" height="124.43755979825622" width="213.1584412271571"><g><svg viewBox="0 0 213.1584412271571 124.43755979825622" height="124.43755979825622" width="213.1584412271571"><g><svg viewBox="0 0 213.1584412271571 124.43755979825622" height="124.43755979825622" width="213.1584412271571"><g><svg viewBox="0 0 213.1584412271571 124.43755979825622" height="124.43755979825622" width="213.1584412271571"><g><svg viewBox="0 0 213.1584412271571 124.43755979825622" height="124.43755979825622" width="213.1584412271571"><g transform="matrix(1,0,0,1,0,0)"><svg width="213.1584412271571" viewBox="0.3 -37.5 65.35000000000001 38.15" height="124.43755979825622" data-palette-color="#ffffff"><path d="M19.1-36.8L19.1-36.8 23.05-10.3 28.5-37.4 35.7-37.4 27.75 0 21.7 0 17.45-26.15 11.9 0 4.7 0 11.9-33.95Q8.55-32.55 6.75-29.75 4.95-26.95 4.95-23.05L4.95-23.05Q4.95-22.1 5.08-21.4 5.2-20.7 5.5-20.05L5.5-20.05Q5.6-19.85 5.63-19.78 5.65-19.7 5.65-19.65L5.65-19.65Q2.85-19.65 1.58-20.83 0.3-22 0.3-24.5L0.3-24.5Q0.3-26.9 1.5-29.38 2.7-31.85 4.8-33.75L4.8-33.75Q6.8-35.6 9.28-36.55 11.75-37.5 14.45-37.5L14.45-37.5Q16.4-37.5 17.38-37.33 18.35-37.15 19.1-36.8ZM45.7-2L45.3 0 38.1 0 44.9-31.8 52.3-32.8 46.3-4.75Q47-4.25 47.7-4 48.4-3.75 49.15-3.75L49.15-3.75Q53.2-3.75 55.97-10.43 58.75-17.1 58.75-25.75L58.75-25.75Q58.75-30.45 56.9-32.83 55.05-35.2 51.45-35.2L51.45-35.2Q45.6-35.2 41.97-31.88 38.35-28.55 38.35-23.05L38.35-23.05Q38.35-22.1 38.47-21.4 38.6-20.7 38.9-20.05L38.9-20.05Q39-19.85 39.02-19.78 39.05-19.7 39.05-19.65L39.05-19.65Q36.35-19.65 35.02-20.8 33.7-21.95 33.7-24.3L33.7-24.3Q33.7-27.05 35.47-29.68 37.25-32.3 40.35-34.25L40.35-34.25Q42.9-35.8 45.97-36.65 49.05-37.5 52.3-37.5L52.3-37.5Q58.7-37.5 62.17-33.68 65.65-29.85 65.65-23.1L65.65-23.1Q65.65-19.45 64.8-15.7 63.95-11.95 62.4-8.7L62.4-8.7Q60.35-4.3 57.55-1.83 54.75 0.65 51.8 0.65L51.8 0.65Q50.3 0.65 48.77-0.03 47.25-0.7 45.7-2L45.7-2Z" opacity="1" transform="matrix(1,0,0,1,0,0)" fill="#ffffff" class="undefined-text-0" data-fill-palette-color="quaternary" id="text-0"></path></svg></g></svg></g></svg></g></svg></g></svg></g></svg></g></svg></g></svg></g></svg><rect width="342.85155851775386" height="342.85155851775386" fill="none" stroke="none" visibility="hidden"></rect></g></svg></g></svg>